<?xml version="1.0" standalone="no"?>
<!DOCTYPE svg PUBLIC "-//W3C//DTD SVG 20010904//EN"
 "http://www.w3.org/TR/2001/REC-SVG-20010904/DTD/svg10.dtd">
<svg version="1.0" xmlns="http://www.w3.org/2000/svg"
 width="512.000000pt" height="512.000000pt" viewBox="0 0 512.000000 512.000000"
 preserveAspectRatio="xMidYMid meet">

<g transform="translate(0.000000,512.000000) scale(0.100000,-0.100000)"
fill="#000000" stroke="none">
<path d="M1400 5079 c-43 -18 -90 -59 -110 -99 -40 -79 -16 -210 49 -262 14
-11 22 -22 16 -24 -32 -12 -77 -47 -87 -69 -16 -35 5 -81 44 -94 27 -9 41 -6
112 25 174 78 236 114 246 140 14 36 13 49 -9 75 -16 20 -31 24 -100 30 -98 7
-134 28 -139 80 -4 42 17 59 72 59 47 1 71 16 86 54 11 31 -7 79 -35 90 -25 9
-117 6 -145 -5z"/>
<path d="M2888 4614 c-85 -46 -51 -184 45 -184 43 0 92 38 100 77 7 40 -16 89
-52 107 -37 20 -58 20 -93 0z"/>
<path d="M3210 4623 c-28 -10 -59 -46 -65 -75 -21 -94 97 -157 166 -89 73 73
-5 199 -101 164z"/>
<path d="M1423 4406 l-28 -24 0 -462 0 -462 24 -19 c30 -25 76 -24 101 1 19
19 20 33 20 484 l0 465 -26 20 c-35 27 -57 26 -91 -3z"/>
<path d="M3753 4420 c-12 -5 -26 -18 -32 -29 -7 -13 -11 -172 -11 -474 l0
-454 23 -21 c33 -31 80 -29 106 4 21 26 21 37 21 470 0 303 -3 451 -11 467 -6
14 -22 30 -36 36 -28 13 -30 13 -60 1z"/>
<path d="M2976 4310 c-60 -24 -122 -81 -147 -135 -29 -63 -26 -155 8 -217 51
-94 172 -147 306 -134 63 6 67 5 58 -12 -32 -60 -105 -107 -212 -134 -130 -32
-255 -13 -359 56 -34 23 -37 28 -43 88 -14 129 -58 322 -80 346 -34 37 -99 25
-117 -24 -7 -17 -2 -59 16 -146 35 -172 41 -269 20 -341 -30 -103 -100 -154
-241 -177 -147 -23 -252 23 -271 120 -9 41 2 74 35 113 46 52 49 81 13 117
-40 39 -63 38 -113 -7 -162 -147 -90 -415 130 -480 115 -34 302 -14 415 44 49
25 117 95 143 148 14 27 27 52 29 54 1 1 28 -9 59 -24 158 -74 343 -71 513 10
168 80 263 239 249 419 -10 134 -69 244 -162 301 -41 25 -60 30 -124 33 -57 1
-88 -3 -125 -18z m198 -165 c41 -41 75 -133 54 -147 -28 -17 -118 -30 -162
-24 -53 8 -101 44 -108 80 -13 65 52 126 134 126 41 0 52 -5 82 -35z"/>
<path d="M661 3199 c-34 -32 -41 -61 -41 -170 0 -54 -2 -99 -4 -99 -2 0 -26 9
-53 21 -90 39 -171 10 -193 -70 -5 -20 -10 -66 -10 -103 0 -38 -2 -68 -4 -68
-2 0 -53 21 -113 46 -124 52 -167 54 -212 10 l-26 -26 0 -206 0 -206 31 -26
c16 -15 393 -214 836 -442 444 -228 805 -416 802 -419 -3 -4 -879 -365 -1438
-593 -170 -70 -201 -86 -217 -112 -17 -29 -19 -55 -19 -334 l0 -304 34 -34
c51 -51 77 -47 318 51 l209 85 132 -37 c73 -20 147 -35 165 -35 19 1 87 30
165 70 190 100 353 184 980 506 l557 287 448 -230 c290 -149 459 -231 479
-231 59 0 94 74 56 118 -10 11 -196 111 -413 222 -217 112 -396 204 -397 205
-1 0 118 62 265 137 l267 136 853 -352 852 -351 0 -223 c0 -175 -3 -223 -12
-219 -7 3 -91 37 -186 76 -99 41 -187 71 -207 71 -19 0 -92 -16 -161 -35
l-127 -35 -236 121 c-238 122 -260 129 -297 98 -19 -16 -26 -60 -14 -89 9 -22
58 -51 257 -154 148 -76 258 -127 277 -128 17 0 91 16 164 36 l133 36 208 -85
c240 -98 266 -102 317 -51 l34 34 0 303 c0 279 -2 306 -19 335 -17 28 -91 60
-792 348 -426 175 -795 328 -822 339 l-47 22 815 420 c449 231 826 430 838
443 21 22 22 33 25 215 2 178 1 194 -18 225 -40 65 -83 66 -224 7 -60 -25
-110 -45 -112 -45 -2 0 -4 30 -4 68 0 37 -5 83 -10 103 -22 80 -103 109 -193
70 -27 -12 -51 -21 -53 -21 -2 0 -4 45 -4 99 0 109 -7 138 -41 170 -28 26 -75
27 -144 4 -42 -14 -89 -16 -302 -14 -186 2 -284 -2 -378 -14 -404 -52 -791
-212 -1010 -417 l-65 -61 -58 55 c-142 135 -324 238 -561 317 -115 39 -143 39
-170 5 -50 -64 -20 -100 124 -149 223 -75 401 -177 518 -297 60 -62 67 -74 67
-109 0 -21 -2 -39 -5 -39 -2 0 -34 18 -70 40 -227 139 -571 279 -886 360 -114
29 -129 31 -155 19 -38 -19 -53 -62 -34 -96 20 -35 23 -36 200 -83 328 -87
708 -255 908 -400 39 -28 42 -34 42 -76 0 -39 -3 -45 -18 -40 -9 3 -393 154
-852 335 l-835 329 -3 92 -3 92 53 -9 c29 -4 161 -7 293 -5 132 2 272 -1 310
-6 75 -10 109 -3 131 26 20 26 17 58 -8 87 -33 36 -135 47 -442 44 -212 -2
-259 0 -301 14 -69 23 -116 22 -144 -4z m3687 -240 l-3 -90 -615 -243 c-964
-381 -1080 -426 -1085 -426 -3 0 -5 20 -5 44 0 53 5 58 170 157 203 121 508
246 780 319 177 47 180 48 200 83 19 34 4 77 -34 96 -26 12 -42 10 -155 -19
-318 -82 -643 -214 -877 -356 -40 -24 -75 -44 -78 -44 -3 0 -6 18 -6 40 0 36
7 47 68 109 149 152 383 270 691 347 211 54 341 67 591 61 118 -2 238 -1 265
3 104 15 96 22 93 -81z m-2801 -558 c546 -215 1002 -391 1014 -391 11 0 465
175 1007 389 543 213 997 391 1010 395 22 7 22 6 22 -72 l0 -79 -62 -25 c-35
-14 -491 -201 -1014 -417 -523 -215 -956 -391 -963 -391 -7 0 -439 175 -959
389 -521 214 -977 401 -1014 416 l-68 27 0 80 c0 72 2 80 18 75 9 -2 464 -181
1009 -396z m-284 -231 c593 -244 1074 -447 1070 -451 -5 -4 -111 -51 -237
-103 l-229 -95 -859 442 -858 442 0 109 c0 98 2 108 18 104 9 -3 502 -204
1095 -448z"/>
</g>
</svg>
